<mxfile host="app.diagrams.net" modified="2024-06-08T08:09:27.441Z" agent="Mozilla/5.0 (Macintosh; Intel Mac OS X 10_15_7) AppleWebKit/605.1.15 (KHTML, like Gecko) Version/17.4.1 Safari/605.1.15" version="24.5.2" etag="HH18Fth09sQRK39JFRAl" type="github">
  <diagram name="Seite-1" id="I2MRT5MbDk4SWr0aWYIC">
    <mxGraphModel>
      <root>
        <mxCell id="0" />
        <mxCell id="1" parent="0" />
      </root>
    </mxGraphModel>
  </diagram>
</mxfile>
